<?xml version="1.0" encoding="utf-8" standalone="no"?>
<!DOCTYPE svg PUBLIC "-//W3C//DTD SVG 1.1//EN"
  "http://www.w3.org/Graphics/SVG/1.1/DTD/svg11.dtd">
<svg xmlns:xlink="http://www.w3.org/1999/xlink" width="360pt" height="360pt" viewBox="0 0 360 360" xmlns="http://www.w3.org/2000/svg" version="1.1">
 <metadata>
  <rdf:RDF xmlns:dc="http://purl.org/dc/elements/1.1/" xmlns:cc="http://creativecommons.org/ns#" xmlns:rdf="http://www.w3.org/1999/02/22-rdf-syntax-ns#">
   <cc:Work>
    <dc:type rdf:resource="http://purl.org/dc/dcmitype/StillImage"/>
    <dc:date>2024-05-26T12:03:32.469380</dc:date>
    <dc:format>image/svg+xml</dc:format>
    <dc:creator>
     <cc:Agent>
      <dc:title>Matplotlib v3.8.4, https://matplotlib.org/</dc:title>
     </cc:Agent>
    </dc:creator>
   </cc:Work>
  </rdf:RDF>
 </metadata>
 <defs>
  <style type="text/css">*{stroke-linejoin: round; stroke-linecap: butt}</style>
 </defs>
 <g id="figure_1">
  <g id="patch_1">
   <path d="M 0 360 
L 360 360 
L 360 0 
L 0 0 
z
" style="fill: #ffffff"/>
  </g>
  <g id="axes_1">
   <g id="patch_2">
    <path d="M 62.57 318.04 
L 349.2 318.04 
L 349.2 10.8 
L 62.57 10.8 
z
" style="fill: #ffffff"/>
   </g>
   <g id="patch_3">
    <path d="M 67.347167 318.04 
L 105.5645 318.04 
L 105.5645 295.973547 
L 67.347167 295.973547 
z
" clip-path="url(#p3da2fcfad9)" style="fill: #e6e6e6"/>
   </g>
   <g id="patch_4">
    <path d="M 115.118833 318.04 
L 153.336167 318.04 
L 153.336167 312.26687 
L 115.118833 312.26687 
z
" clip-path="url(#p3da2fcfad9)" style="fill: #e6e6e6"/>
   </g>
   <g id="patch_5">
    <path d="M 162.8905 318.04 
L 201.107833 318.04 
L 201.107833 314.76939 
L 162.8905 314.76939 
z
" clip-path="url(#p3da2fcfad9)" style="fill: #e6e6e6"/>
   </g>
   <g id="patch_6">
    <path d="M 210.662167 318.04 
L 248.8795 318.04 
L 248.8795 312.879103 
L 210.662167 312.879103 
z
" clip-path="url(#p3da2fcfad9)" style="fill: #e6e6e6"/>
   </g>
   <g id="patch_7">
    <path d="M 258.433833 318.04 
L 296.651167 318.04 
L 296.651167 315.806501 
L 258.433833 315.806501 
z
" clip-path="url(#p3da2fcfad9)" style="fill: #e6e6e6"/>
   </g>
   <g id="patch_8">
    <path d="M 306.2055 318.04 
L 344.422833 318.04 
L 344.422833 318.04 
L 306.2055 318.04 
z
" clip-path="url(#p3da2fcfad9)" style="fill: #e6e6e6"/>
   </g>
   <g id="matplotlib.axis_1">
    <g id="xtick_1">
     <g id="line2d_1">
      <defs>
       <path id="m48f49c2501" d="M 0 0 
L 0 3.5 
" style="stroke: #000000; stroke-width: 0.8"/>
      </defs>
      <g>
       <use xlink:href="#m48f49c2501" x="86.455833" y="318.04" style="stroke: #000000; stroke-width: 0.8"/>
      </g>
     </g>
     <g id="text_1">
      <!-- Objeto L (1) -->
      <g transform="translate(67.446814 372.33329) rotate(-45) scale(0.1 -0.1)">
       <defs>
        <path id="DejaVuSans-4f" d="M 2522 4238 
Q 1834 4238 1429 3725 
Q 1025 3213 1025 2328 
Q 1025 1447 1429 934 
Q 1834 422 2522 422 
Q 3209 422 3611 934 
Q 4013 1447 4013 2328 
Q 4013 3213 3611 3725 
Q 3209 4238 2522 4238 
z
M 2522 4750 
Q 3503 4750 4090 4092 
Q 4678 3434 4678 2328 
Q 4678 1225 4090 567 
Q 3503 -91 2522 -91 
Q 1538 -91 948 565 
Q 359 1222 359 2328 
Q 359 3434 948 4092 
Q 1538 4750 2522 4750 
z
" transform="scale(0.015625)"/>
        <path id="DejaVuSans-62" d="M 3116 1747 
Q 3116 2381 2855 2742 
Q 2594 3103 2138 3103 
Q 1681 3103 1420 2742 
Q 1159 2381 1159 1747 
Q 1159 1113 1420 752 
Q 1681 391 2138 391 
Q 2594 391 2855 752 
Q 3116 1113 3116 1747 
z
M 1159 2969 
Q 1341 3281 1617 3432 
Q 1894 3584 2278 3584 
Q 2916 3584 3314 3078 
Q 3713 2572 3713 1747 
Q 3713 922 3314 415 
Q 2916 -91 2278 -91 
Q 1894 -91 1617 61 
Q 1341 213 1159 525 
L 1159 0 
L 581 0 
L 581 4863 
L 1159 4863 
L 1159 2969 
z
" transform="scale(0.015625)"/>
        <path id="DejaVuSans-6a" d="M 603 3500 
L 1178 3500 
L 1178 -63 
Q 1178 -731 923 -1031 
Q 669 -1331 103 -1331 
L -116 -1331 
L -116 -844 
L 38 -844 
Q 366 -844 484 -692 
Q 603 -541 603 -63 
L 603 3500 
z
M 603 4863 
L 1178 4863 
L 1178 4134 
L 603 4134 
L 603 4863 
z
" transform="scale(0.015625)"/>
        <path id="DejaVuSans-65" d="M 3597 1894 
L 3597 1613 
L 953 1613 
Q 991 1019 1311 708 
Q 1631 397 2203 397 
Q 2534 397 2845 478 
Q 3156 559 3463 722 
L 3463 178 
Q 3153 47 2828 -22 
Q 2503 -91 2169 -91 
Q 1331 -91 842 396 
Q 353 884 353 1716 
Q 353 2575 817 3079 
Q 1281 3584 2069 3584 
Q 2775 3584 3186 3129 
Q 3597 2675 3597 1894 
z
M 3022 2063 
Q 3016 2534 2758 2815 
Q 2500 3097 2075 3097 
Q 1594 3097 1305 2825 
Q 1016 2553 972 2059 
L 3022 2063 
z
" transform="scale(0.015625)"/>
        <path id="DejaVuSans-74" d="M 1172 4494 
L 1172 3500 
L 2356 3500 
L 2356 3053 
L 1172 3053 
L 1172 1153 
Q 1172 725 1289 603 
Q 1406 481 1766 481 
L 2356 481 
L 2356 0 
L 1766 0 
Q 1100 0 847 248 
Q 594 497 594 1153 
L 594 3053 
L 172 3053 
L 172 3500 
L 594 3500 
L 594 4494 
L 1172 4494 
z
" transform="scale(0.015625)"/>
        <path id="DejaVuSans-6f" d="M 1959 3097 
Q 1497 3097 1228 2736 
Q 959 2375 959 1747 
Q 959 1119 1226 758 
Q 1494 397 1959 397 
Q 2419 397 2687 759 
Q 2956 1122 2956 1747 
Q 2956 2369 2687 2733 
Q 2419 3097 1959 3097 
z
M 1959 3584 
Q 2709 3584 3137 3096 
Q 3566 2609 3566 1747 
Q 3566 888 3137 398 
Q 2709 -91 1959 -91 
Q 1206 -91 779 398 
Q 353 888 353 1747 
Q 353 2609 779 3096 
Q 1206 3584 1959 3584 
z
" transform="scale(0.015625)"/>
        <path id="DejaVuSans-20" transform="scale(0.015625)"/>
        <path id="DejaVuSans-4c" d="M 628 4666 
L 1259 4666 
L 1259 531 
L 3531 531 
L 3531 0 
L 628 0 
L 628 4666 
z
" transform="scale(0.015625)"/>
        <path id="DejaVuSans-28" d="M 1984 4856 
Q 1566 4138 1362 3434 
Q 1159 2731 1159 2009 
Q 1159 1288 1364 580 
Q 1569 -128 1984 -844 
L 1484 -844 
Q 1016 -109 783 600 
Q 550 1309 550 2009 
Q 550 2706 781 3412 
Q 1013 4119 1484 4856 
L 1984 4856 
z
" transform="scale(0.015625)"/>
        <path id="DejaVuSans-31" d="M 794 531 
L 1825 531 
L 1825 4091 
L 703 3866 
L 703 4441 
L 1819 4666 
L 2450 4666 
L 2450 531 
L 3481 531 
L 3481 0 
L 794 0 
L 794 531 
z
" transform="scale(0.015625)"/>
        <path id="DejaVuSans-29" d="M 513 4856 
L 1013 4856 
Q 1481 4119 1714 3412 
Q 1947 2706 1947 2009 
Q 1947 1309 1714 600 
Q 1481 -109 1013 -844 
L 513 -844 
Q 928 -128 1133 580 
Q 1338 1288 1338 2009 
Q 1338 2731 1133 3434 
Q 928 4138 513 4856 
z
" transform="scale(0.015625)"/>
       </defs>
       <use xlink:href="#DejaVuSans-4f"/>
       <use xlink:href="#DejaVuSans-62" x="78.710938"/>
       <use xlink:href="#DejaVuSans-6a" x="142.1875"/>
       <use xlink:href="#DejaVuSans-65" x="169.970703"/>
       <use xlink:href="#DejaVuSans-74" x="231.494141"/>
       <use xlink:href="#DejaVuSans-6f" x="270.703125"/>
       <use xlink:href="#DejaVuSans-20" x="331.884766"/>
       <use xlink:href="#DejaVuSans-4c" x="363.671875"/>
       <use xlink:href="#DejaVuSans-20" x="419.384766"/>
       <use xlink:href="#DejaVuSans-28" x="451.171875"/>
       <use xlink:href="#DejaVuSans-31" x="490.185547"/>
       <use xlink:href="#DejaVuSans-29" x="553.808594"/>
      </g>
     </g>
    </g>
    <g id="xtick_2">
     <g id="line2d_2">
      <g>
       <use xlink:href="#m48f49c2501" x="134.2275" y="318.04" style="stroke: #000000; stroke-width: 0.8"/>
      </g>
     </g>
     <g id="text_2">
      <!-- Objeto NL (1) -->
      <g transform="translate(112.57346 377.623333) rotate(-45) scale(0.1 -0.1)">
       <defs>
        <path id="DejaVuSans-4e" d="M 628 4666 
L 1478 4666 
L 3547 763 
L 3547 4666 
L 4159 4666 
L 4159 0 
L 3309 0 
L 1241 3903 
L 1241 0 
L 628 0 
L 628 4666 
z
" transform="scale(0.015625)"/>
       </defs>
       <use xlink:href="#DejaVuSans-4f"/>
       <use xlink:href="#DejaVuSans-62" x="78.710938"/>
       <use xlink:href="#DejaVuSans-6a" x="142.1875"/>
       <use xlink:href="#DejaVuSans-65" x="169.970703"/>
       <use xlink:href="#DejaVuSans-74" x="231.494141"/>
       <use xlink:href="#DejaVuSans-6f" x="270.703125"/>
       <use xlink:href="#DejaVuSans-20" x="331.884766"/>
       <use xlink:href="#DejaVuSans-4e" x="363.671875"/>
       <use xlink:href="#DejaVuSans-4c" x="438.476562"/>
       <use xlink:href="#DejaVuSans-20" x="494.189453"/>
       <use xlink:href="#DejaVuSans-28" x="525.976562"/>
       <use xlink:href="#DejaVuSans-31" x="564.990234"/>
       <use xlink:href="#DejaVuSans-29" x="628.613281"/>
      </g>
     </g>
    </g>
    <g id="xtick_3">
     <g id="line2d_3">
      <g>
       <use xlink:href="#m48f49c2501" x="181.999167" y="318.04" style="stroke: #000000; stroke-width: 0.8"/>
      </g>
     </g>
     <g id="text_3">
      <!-- Basal NL -->
      <g transform="translate(168.628772 361.056042) rotate(-45) scale(0.1 -0.1)">
       <defs>
        <path id="DejaVuSans-42" d="M 1259 2228 
L 1259 519 
L 2272 519 
Q 2781 519 3026 730 
Q 3272 941 3272 1375 
Q 3272 1813 3026 2020 
Q 2781 2228 2272 2228 
L 1259 2228 
z
M 1259 4147 
L 1259 2741 
L 2194 2741 
Q 2656 2741 2882 2914 
Q 3109 3088 3109 3444 
Q 3109 3797 2882 3972 
Q 2656 4147 2194 4147 
L 1259 4147 
z
M 628 4666 
L 2241 4666 
Q 2963 4666 3353 4366 
Q 3744 4066 3744 3513 
Q 3744 3084 3544 2831 
Q 3344 2578 2956 2516 
Q 3422 2416 3680 2098 
Q 3938 1781 3938 1306 
Q 3938 681 3513 340 
Q 3088 0 2303 0 
L 628 0 
L 628 4666 
z
" transform="scale(0.015625)"/>
        <path id="DejaVuSans-61" d="M 2194 1759 
Q 1497 1759 1228 1600 
Q 959 1441 959 1056 
Q 959 750 1161 570 
Q 1363 391 1709 391 
Q 2188 391 2477 730 
Q 2766 1069 2766 1631 
L 2766 1759 
L 2194 1759 
z
M 3341 1997 
L 3341 0 
L 2766 0 
L 2766 531 
Q 2569 213 2275 61 
Q 1981 -91 1556 -91 
Q 1019 -91 701 211 
Q 384 513 384 1019 
Q 384 1609 779 1909 
Q 1175 2209 1959 2209 
L 2766 2209 
L 2766 2266 
Q 2766 2663 2505 2880 
Q 2244 3097 1772 3097 
Q 1472 3097 1187 3025 
Q 903 2953 641 2809 
L 641 3341 
Q 956 3463 1253 3523 
Q 1550 3584 1831 3584 
Q 2591 3584 2966 3190 
Q 3341 2797 3341 1997 
z
" transform="scale(0.015625)"/>
        <path id="DejaVuSans-73" d="M 2834 3397 
L 2834 2853 
Q 2591 2978 2328 3040 
Q 2066 3103 1784 3103 
Q 1356 3103 1142 2972 
Q 928 2841 928 2578 
Q 928 2378 1081 2264 
Q 1234 2150 1697 2047 
L 1894 2003 
Q 2506 1872 2764 1633 
Q 3022 1394 3022 966 
Q 3022 478 2636 193 
Q 2250 -91 1575 -91 
Q 1294 -91 989 -36 
Q 684 19 347 128 
L 347 722 
Q 666 556 975 473 
Q 1284 391 1588 391 
Q 1994 391 2212 530 
Q 2431 669 2431 922 
Q 2431 1156 2273 1281 
Q 2116 1406 1581 1522 
L 1381 1569 
Q 847 1681 609 1914 
Q 372 2147 372 2553 
Q 372 3047 722 3315 
Q 1072 3584 1716 3584 
Q 2034 3584 2315 3537 
Q 2597 3491 2834 3397 
z
" transform="scale(0.015625)"/>
        <path id="DejaVuSans-6c" d="M 603 4863 
L 1178 4863 
L 1178 0 
L 603 0 
L 603 4863 
z
" transform="scale(0.015625)"/>
       </defs>
       <use xlink:href="#DejaVuSans-42"/>
       <use xlink:href="#DejaVuSans-61" x="68.603516"/>
       <use xlink:href="#DejaVuSans-73" x="129.882812"/>
       <use xlink:href="#DejaVuSans-61" x="181.982422"/>
       <use xlink:href="#DejaVuSans-6c" x="243.261719"/>
       <use xlink:href="#DejaVuSans-20" x="271.044922"/>
       <use xlink:href="#DejaVuSans-4e" x="302.832031"/>
       <use xlink:href="#DejaVuSans-4c" x="377.636719"/>
      </g>
     </g>
    </g>
    <g id="xtick_4">
     <g id="line2d_4">
      <g>
       <use xlink:href="#m48f49c2501" x="229.770833" y="318.04" style="stroke: #000000; stroke-width: 0.8"/>
      </g>
     </g>
     <g id="text_4">
      <!-- Objeto NL (2) -->
      <g transform="translate(208.116793 377.623333) rotate(-45) scale(0.1 -0.1)">
       <defs>
        <path id="DejaVuSans-32" d="M 1228 531 
L 3431 531 
L 3431 0 
L 469 0 
L 469 531 
Q 828 903 1448 1529 
Q 2069 2156 2228 2338 
Q 2531 2678 2651 2914 
Q 2772 3150 2772 3378 
Q 2772 3750 2511 3984 
Q 2250 4219 1831 4219 
Q 1534 4219 1204 4116 
Q 875 4013 500 3803 
L 500 4441 
Q 881 4594 1212 4672 
Q 1544 4750 1819 4750 
Q 2544 4750 2975 4387 
Q 3406 4025 3406 3419 
Q 3406 3131 3298 2873 
Q 3191 2616 2906 2266 
Q 2828 2175 2409 1742 
Q 1991 1309 1228 531 
z
" transform="scale(0.015625)"/>
       </defs>
       <use xlink:href="#DejaVuSans-4f"/>
       <use xlink:href="#DejaVuSans-62" x="78.710938"/>
       <use xlink:href="#DejaVuSans-6a" x="142.1875"/>
       <use xlink:href="#DejaVuSans-65" x="169.970703"/>
       <use xlink:href="#DejaVuSans-74" x="231.494141"/>
       <use xlink:href="#DejaVuSans-6f" x="270.703125"/>
       <use xlink:href="#DejaVuSans-20" x="331.884766"/>
       <use xlink:href="#DejaVuSans-4e" x="363.671875"/>
       <use xlink:href="#DejaVuSans-4c" x="438.476562"/>
       <use xlink:href="#DejaVuSans-20" x="494.189453"/>
       <use xlink:href="#DejaVuSans-28" x="525.976562"/>
       <use xlink:href="#DejaVuSans-32" x="564.990234"/>
       <use xlink:href="#DejaVuSans-29" x="628.613281"/>
      </g>
     </g>
    </g>
    <g id="xtick_5">
     <g id="line2d_5">
      <g>
       <use xlink:href="#m48f49c2501" x="277.5425" y="318.04" style="stroke: #000000; stroke-width: 0.8"/>
      </g>
     </g>
     <g id="text_5">
      <!-- Objeto L (2) -->
      <g transform="translate(258.533481 372.33329) rotate(-45) scale(0.1 -0.1)">
       <use xlink:href="#DejaVuSans-4f"/>
       <use xlink:href="#DejaVuSans-62" x="78.710938"/>
       <use xlink:href="#DejaVuSans-6a" x="142.1875"/>
       <use xlink:href="#DejaVuSans-65" x="169.970703"/>
       <use xlink:href="#DejaVuSans-74" x="231.494141"/>
       <use xlink:href="#DejaVuSans-6f" x="270.703125"/>
       <use xlink:href="#DejaVuSans-20" x="331.884766"/>
       <use xlink:href="#DejaVuSans-4c" x="363.671875"/>
       <use xlink:href="#DejaVuSans-20" x="419.384766"/>
       <use xlink:href="#DejaVuSans-28" x="451.171875"/>
       <use xlink:href="#DejaVuSans-32" x="490.185547"/>
       <use xlink:href="#DejaVuSans-29" x="553.808594"/>
      </g>
     </g>
    </g>
    <g id="xtick_6">
     <g id="line2d_6">
      <g>
       <use xlink:href="#m48f49c2501" x="325.314167" y="318.04" style="stroke: #000000; stroke-width: 0.8"/>
      </g>
     </g>
     <g id="text_6">
      <!-- Basal L -->
      <g transform="translate(314.588793 355.765999) rotate(-45) scale(0.1 -0.1)">
       <use xlink:href="#DejaVuSans-42"/>
       <use xlink:href="#DejaVuSans-61" x="68.603516"/>
       <use xlink:href="#DejaVuSans-73" x="129.882812"/>
       <use xlink:href="#DejaVuSans-61" x="181.982422"/>
       <use xlink:href="#DejaVuSans-6c" x="243.261719"/>
       <use xlink:href="#DejaVuSans-20" x="271.044922"/>
       <use xlink:href="#DejaVuSans-4c" x="302.832031"/>
      </g>
     </g>
    </g>
    <g id="text_7">
     <!-- variable -->
     <g transform="translate(185.713125 390.692332) scale(0.1 -0.1)">
      <defs>
       <path id="DejaVuSans-76" d="M 191 3500 
L 800 3500 
L 1894 563 
L 2988 3500 
L 3597 3500 
L 2284 0 
L 1503 0 
L 191 3500 
z
" transform="scale(0.015625)"/>
       <path id="DejaVuSans-72" d="M 2631 2963 
Q 2534 3019 2420 3045 
Q 2306 3072 2169 3072 
Q 1681 3072 1420 2755 
Q 1159 2438 1159 1844 
L 1159 0 
L 581 0 
L 581 3500 
L 1159 3500 
L 1159 2956 
Q 1341 3275 1631 3429 
Q 1922 3584 2338 3584 
Q 2397 3584 2469 3576 
Q 2541 3569 2628 3553 
L 2631 2963 
z
" transform="scale(0.015625)"/>
       <path id="DejaVuSans-69" d="M 603 3500 
L 1178 3500 
L 1178 0 
L 603 0 
L 603 3500 
z
M 603 4863 
L 1178 4863 
L 1178 4134 
L 603 4134 
L 603 4863 
z
" transform="scale(0.015625)"/>
      </defs>
      <use xlink:href="#DejaVuSans-76"/>
      <use xlink:href="#DejaVuSans-61" x="59.179688"/>
      <use xlink:href="#DejaVuSans-72" x="120.458984"/>
      <use xlink:href="#DejaVuSans-69" x="161.572266"/>
      <use xlink:href="#DejaVuSans-61" x="189.355469"/>
      <use xlink:href="#DejaVuSans-62" x="250.634766"/>
      <use xlink:href="#DejaVuSans-6c" x="314.111328"/>
      <use xlink:href="#DejaVuSans-65" x="341.894531"/>
     </g>
    </g>
   </g>
   <g id="matplotlib.axis_2">
    <g id="ytick_1">
     <g id="line2d_7">
      <defs>
       <path id="m761e997568" d="M 0 0 
L -3.5 0 
" style="stroke: #000000; stroke-width: 0.8"/>
      </defs>
      <g>
       <use xlink:href="#m761e997568" x="62.57" y="318.04" style="stroke: #000000; stroke-width: 0.8"/>
      </g>
     </g>
     <g id="text_8">
      <!-- 0.0 -->
      <g transform="translate(39.666875 321.839219) scale(0.1 -0.1)">
       <defs>
        <path id="DejaVuSans-30" d="M 2034 4250 
Q 1547 4250 1301 3770 
Q 1056 3291 1056 2328 
Q 1056 1369 1301 889 
Q 1547 409 2034 409 
Q 2525 409 2770 889 
Q 3016 1369 3016 2328 
Q 3016 3291 2770 3770 
Q 2525 4250 2034 4250 
z
M 2034 4750 
Q 2819 4750 3233 4129 
Q 3647 3509 3647 2328 
Q 3647 1150 3233 529 
Q 2819 -91 2034 -91 
Q 1250 -91 836 529 
Q 422 1150 422 2328 
Q 422 3509 836 4129 
Q 1250 4750 2034 4750 
z
" transform="scale(0.015625)"/>
        <path id="DejaVuSans-2e" d="M 684 794 
L 1344 794 
L 1344 0 
L 684 0 
L 684 794 
z
" transform="scale(0.015625)"/>
       </defs>
       <use xlink:href="#DejaVuSans-30"/>
       <use xlink:href="#DejaVuSans-2e" x="63.623047"/>
       <use xlink:href="#DejaVuSans-30" x="95.410156"/>
      </g>
     </g>
    </g>
    <g id="ytick_2">
     <g id="line2d_8">
      <g>
       <use xlink:href="#m761e997568" x="62.57" y="256.592" style="stroke: #000000; stroke-width: 0.8"/>
      </g>
     </g>
     <g id="text_9">
      <!-- 0.5 -->
      <g transform="translate(39.666875 260.391219) scale(0.1 -0.1)">
       <defs>
        <path id="DejaVuSans-35" d="M 691 4666 
L 3169 4666 
L 3169 4134 
L 1269 4134 
L 1269 2991 
Q 1406 3038 1543 3061 
Q 1681 3084 1819 3084 
Q 2600 3084 3056 2656 
Q 3513 2228 3513 1497 
Q 3513 744 3044 326 
Q 2575 -91 1722 -91 
Q 1428 -91 1123 -41 
Q 819 9 494 109 
L 494 744 
Q 775 591 1075 516 
Q 1375 441 1709 441 
Q 2250 441 2565 725 
Q 2881 1009 2881 1497 
Q 2881 1984 2565 2268 
Q 2250 2553 1709 2553 
Q 1456 2553 1204 2497 
Q 953 2441 691 2322 
L 691 4666 
z
" transform="scale(0.015625)"/>
       </defs>
       <use xlink:href="#DejaVuSans-30"/>
       <use xlink:href="#DejaVuSans-2e" x="63.623047"/>
       <use xlink:href="#DejaVuSans-35" x="95.410156"/>
      </g>
     </g>
    </g>
    <g id="ytick_3">
     <g id="line2d_9">
      <g>
       <use xlink:href="#m761e997568" x="62.57" y="195.144" style="stroke: #000000; stroke-width: 0.8"/>
      </g>
     </g>
     <g id="text_10">
      <!-- 1.0 -->
      <g transform="translate(39.666875 198.943219) scale(0.1 -0.1)">
       <use xlink:href="#DejaVuSans-31"/>
       <use xlink:href="#DejaVuSans-2e" x="63.623047"/>
       <use xlink:href="#DejaVuSans-30" x="95.410156"/>
      </g>
     </g>
    </g>
    <g id="ytick_4">
     <g id="line2d_10">
      <g>
       <use xlink:href="#m761e997568" x="62.57" y="133.696" style="stroke: #000000; stroke-width: 0.8"/>
      </g>
     </g>
     <g id="text_11">
      <!-- 1.5 -->
      <g transform="translate(39.666875 137.495219) scale(0.1 -0.1)">
       <use xlink:href="#DejaVuSans-31"/>
       <use xlink:href="#DejaVuSans-2e" x="63.623047"/>
       <use xlink:href="#DejaVuSans-35" x="95.410156"/>
      </g>
     </g>
    </g>
    <g id="ytick_5">
     <g id="line2d_11">
      <g>
       <use xlink:href="#m761e997568" x="62.57" y="72.248" style="stroke: #000000; stroke-width: 0.8"/>
      </g>
     </g>
     <g id="text_12">
      <!-- 2.0 -->
      <g transform="translate(39.666875 76.047219) scale(0.1 -0.1)">
       <use xlink:href="#DejaVuSans-32"/>
       <use xlink:href="#DejaVuSans-2e" x="63.623047"/>
       <use xlink:href="#DejaVuSans-30" x="95.410156"/>
      </g>
     </g>
    </g>
    <g id="ytick_6">
     <g id="line2d_12">
      <g>
       <use xlink:href="#m761e997568" x="62.57" y="10.8" style="stroke: #000000; stroke-width: 0.8"/>
      </g>
     </g>
     <g id="text_13">
      <!-- 2.5 -->
      <g transform="translate(39.666875 14.599219) scale(0.1 -0.1)">
       <use xlink:href="#DejaVuSans-32"/>
       <use xlink:href="#DejaVuSans-2e" x="63.623047"/>
       <use xlink:href="#DejaVuSans-35" x="95.410156"/>
      </g>
     </g>
    </g>
    <g id="text_14">
     <!-- Tiempo en movimiento (%) -->
     <g transform="translate(33.587187 232.354375) rotate(-90) scale(0.1 -0.1)">
      <defs>
       <path id="DejaVuSans-54" d="M -19 4666 
L 3928 4666 
L 3928 4134 
L 2272 4134 
L 2272 0 
L 1638 0 
L 1638 4134 
L -19 4134 
L -19 4666 
z
" transform="scale(0.015625)"/>
       <path id="DejaVuSans-6d" d="M 3328 2828 
Q 3544 3216 3844 3400 
Q 4144 3584 4550 3584 
Q 5097 3584 5394 3201 
Q 5691 2819 5691 2113 
L 5691 0 
L 5113 0 
L 5113 2094 
Q 5113 2597 4934 2840 
Q 4756 3084 4391 3084 
Q 3944 3084 3684 2787 
Q 3425 2491 3425 1978 
L 3425 0 
L 2847 0 
L 2847 2094 
Q 2847 2600 2669 2842 
Q 2491 3084 2119 3084 
Q 1678 3084 1418 2786 
Q 1159 2488 1159 1978 
L 1159 0 
L 581 0 
L 581 3500 
L 1159 3500 
L 1159 2956 
Q 1356 3278 1631 3431 
Q 1906 3584 2284 3584 
Q 2666 3584 2933 3390 
Q 3200 3197 3328 2828 
z
" transform="scale(0.015625)"/>
       <path id="DejaVuSans-70" d="M 1159 525 
L 1159 -1331 
L 581 -1331 
L 581 3500 
L 1159 3500 
L 1159 2969 
Q 1341 3281 1617 3432 
Q 1894 3584 2278 3584 
Q 2916 3584 3314 3078 
Q 3713 2572 3713 1747 
Q 3713 922 3314 415 
Q 2916 -91 2278 -91 
Q 1894 -91 1617 61 
Q 1341 213 1159 525 
z
M 3116 1747 
Q 3116 2381 2855 2742 
Q 2594 3103 2138 3103 
Q 1681 3103 1420 2742 
Q 1159 2381 1159 1747 
Q 1159 1113 1420 752 
Q 1681 391 2138 391 
Q 2594 391 2855 752 
Q 3116 1113 3116 1747 
z
" transform="scale(0.015625)"/>
       <path id="DejaVuSans-6e" d="M 3513 2113 
L 3513 0 
L 2938 0 
L 2938 2094 
Q 2938 2591 2744 2837 
Q 2550 3084 2163 3084 
Q 1697 3084 1428 2787 
Q 1159 2491 1159 1978 
L 1159 0 
L 581 0 
L 581 3500 
L 1159 3500 
L 1159 2956 
Q 1366 3272 1645 3428 
Q 1925 3584 2291 3584 
Q 2894 3584 3203 3211 
Q 3513 2838 3513 2113 
z
" transform="scale(0.015625)"/>
       <path id="DejaVuSans-25" d="M 4653 2053 
Q 4381 2053 4226 1822 
Q 4072 1591 4072 1178 
Q 4072 772 4226 539 
Q 4381 306 4653 306 
Q 4919 306 5073 539 
Q 5228 772 5228 1178 
Q 5228 1588 5073 1820 
Q 4919 2053 4653 2053 
z
M 4653 2450 
Q 5147 2450 5437 2106 
Q 5728 1763 5728 1178 
Q 5728 594 5436 251 
Q 5144 -91 4653 -91 
Q 4153 -91 3862 251 
Q 3572 594 3572 1178 
Q 3572 1766 3864 2108 
Q 4156 2450 4653 2450 
z
M 1428 4353 
Q 1159 4353 1004 4120 
Q 850 3888 850 3481 
Q 850 3069 1003 2837 
Q 1156 2606 1428 2606 
Q 1700 2606 1854 2837 
Q 2009 3069 2009 3481 
Q 2009 3884 1853 4118 
Q 1697 4353 1428 4353 
z
M 4250 4750 
L 4750 4750 
L 1831 -91 
L 1331 -91 
L 4250 4750 
z
M 1428 4750 
Q 1922 4750 2215 4408 
Q 2509 4066 2509 3481 
Q 2509 2891 2217 2550 
Q 1925 2209 1428 2209 
Q 931 2209 642 2551 
Q 353 2894 353 3481 
Q 353 4063 643 4406 
Q 934 4750 1428 4750 
z
" transform="scale(0.015625)"/>
      </defs>
      <use xlink:href="#DejaVuSans-54"/>
      <use xlink:href="#DejaVuSans-69" x="57.958984"/>
      <use xlink:href="#DejaVuSans-65" x="85.742188"/>
      <use xlink:href="#DejaVuSans-6d" x="147.265625"/>
      <use xlink:href="#DejaVuSans-70" x="244.677734"/>
      <use xlink:href="#DejaVuSans-6f" x="308.154297"/>
      <use xlink:href="#DejaVuSans-20" x="369.335938"/>
      <use xlink:href="#DejaVuSans-65" x="401.123047"/>
      <use xlink:href="#DejaVuSans-6e" x="462.646484"/>
      <use xlink:href="#DejaVuSans-20" x="526.025391"/>
      <use xlink:href="#DejaVuSans-6d" x="557.8125"/>
      <use xlink:href="#DejaVuSans-6f" x="655.224609"/>
      <use xlink:href="#DejaVuSans-76" x="716.40625"/>
      <use xlink:href="#DejaVuSans-69" x="775.585938"/>
      <use xlink:href="#DejaVuSans-6d" x="803.369141"/>
      <use xlink:href="#DejaVuSans-69" x="900.78125"/>
      <use xlink:href="#DejaVuSans-65" x="928.564453"/>
      <use xlink:href="#DejaVuSans-6e" x="990.087891"/>
      <use xlink:href="#DejaVuSans-74" x="1053.466797"/>
      <use xlink:href="#DejaVuSans-6f" x="1092.675781"/>
      <use xlink:href="#DejaVuSans-20" x="1153.857422"/>
      <use xlink:href="#DejaVuSans-28" x="1185.644531"/>
      <use xlink:href="#DejaVuSans-25" x="1224.658203"/>
      <use xlink:href="#DejaVuSans-29" x="1319.677734"/>
     </g>
    </g>
   </g>
   <g id="line2d_13">
    <path d="M 86.455833 361 
L 86.455833 225.905844 
" clip-path="url(#p3da2fcfad9)" style="fill: none; stroke: #424242; stroke-width: 2.7; stroke-linecap: square"/>
   </g>
   <g id="line2d_14">
    <path d="M 134.2275 361 
L 134.2275 195.155908 
" clip-path="url(#p3da2fcfad9)" style="fill: none; stroke: #424242; stroke-width: 2.7; stroke-linecap: square"/>
   </g>
   <g id="line2d_15">
    <path d="M 181.999167 361 
L 181.999167 248.989233 
" clip-path="url(#p3da2fcfad9)" style="fill: none; stroke: #424242; stroke-width: 2.7; stroke-linecap: square"/>
   </g>
   <g id="line2d_16">
    <path d="M 229.770833 345.725414 
L 229.770833 280.032792 
" clip-path="url(#p3da2fcfad9)" style="fill: none; stroke: #424242; stroke-width: 2.7; stroke-linecap: square"/>
   </g>
   <g id="line2d_17">
    <path d="M 277.5425 361 
L 277.5425 217.520441 
" clip-path="url(#p3da2fcfad9)" style="fill: none; stroke: #424242; stroke-width: 2.7; stroke-linecap: square"/>
   </g>
   <g id="line2d_18">
    <path d="M 325.314167 319.936058 
L 325.314167 316.143942 
" clip-path="url(#p3da2fcfad9)" style="fill: none; stroke: #424242; stroke-width: 2.7; stroke-linecap: square"/>
   </g>
   <g id="patch_9">
    <path d="M 62.57 318.04 
L 62.57 10.8 
" style="fill: none; stroke: #000000; stroke-width: 0.8; stroke-linejoin: miter; stroke-linecap: square"/>
   </g>
   <g id="patch_10">
    <path d="M 62.57 318.04 
L 349.2 318.04 
" style="fill: none; stroke: #000000; stroke-width: 0.8; stroke-linejoin: miter; stroke-linecap: square"/>
   </g>
   <g id="PathCollection_1">
    <defs>
     <path id="m5d3971411b" d="M 0 2.5 
C 0.663008 2.5 1.29895 2.236584 1.767767 1.767767 
C 2.236584 1.29895 2.5 0.663008 2.5 0 
C 2.5 -0.663008 2.236584 -1.29895 1.767767 -1.767767 
C 1.29895 -2.236584 0.663008 -2.5 0 -2.5 
C -0.663008 -2.5 -1.29895 -2.236584 -1.767767 -1.767767 
C -2.236584 -1.29895 -2.5 -0.663008 -2.5 0 
C -2.5 0.663008 -2.236584 1.29895 -1.767767 1.767767 
C -1.29895 2.236584 -0.663008 2.5 0 2.5 
z
"/>
    </defs>
    <g clip-path="url(#p3da2fcfad9)">
     <use xlink:href="#m5d3971411b" x="86.455833" y="273.907094" style="fill: #9b96e1"/>
     <use xlink:href="#m5d3971411b" x="86.455833" y="318.04" style="fill: #9b96e1"/>
     <use xlink:href="#m5d3971411b" x="86.455833" y="181.142413" style="fill: #9b96e1"/>
     <use xlink:href="#m5d3971411b" x="86.455833" y="170.049321" style="fill: #9b96e1"/>
     <use xlink:href="#m5d3971411b" x="81.205833" y="318.04" style="fill: #9b96e1"/>
     <use xlink:href="#m5d3971411b" x="91.705833" y="318.04" style="fill: #9b96e1"/>
    </g>
   </g>
   <g id="PathCollection_2">
    <g clip-path="url(#p3da2fcfad9)">
     <use xlink:href="#m5d3971411b" x="134.2275" y="143.46648" style="fill: #9b96e1"/>
     <use xlink:href="#m5d3971411b" x="129.043753" y="314.10666" style="fill: #9b96e1"/>
     <use xlink:href="#m5d3971411b" x="144.086615" y="311.957241" style="fill: #9b96e1"/>
     <use xlink:href="#m5d3971411b" x="134.2275" y="45.807542" style="fill: #9b96e1"/>
     <use xlink:href="#m5d3971411b" x="138.877036" y="312.576499" style="fill: #9b96e1"/>
     <use xlink:href="#m5d3971411b" x="134.2275" y="314.898495" style="fill: #9b96e1"/>
    </g>
   </g>
   <g id="PathCollection_3">
    <g clip-path="url(#p3da2fcfad9)">
     <use xlink:href="#m5d3971411b" x="181.999167" y="153.425397" style="fill: #9b96e1"/>
     <use xlink:href="#m5d3971411b" x="176.804002" y="316.269214" style="fill: #9b96e1"/>
     <use xlink:href="#m5d3971411b" x="187.151857" y="316.031773" style="fill: #9b96e1"/>
     <use xlink:href="#m5d3971411b" x="181.999167" y="309.212308" style="fill: #9b96e1"/>
     <use xlink:href="#m5d3971411b" x="181.999167" y="316.989986" style="fill: #9b96e1"/>
     <use xlink:href="#m5d3971411b" x="172.427855" y="313.507007" style="fill: #9b96e1"/>
    </g>
   </g>
   <g id="PathCollection_4">
    <g clip-path="url(#p3da2fcfad9)">
     <use xlink:href="#m5d3971411b" x="229.770833" y="232.446782" style="fill: #9b96e1"/>
     <use xlink:href="#m5d3971411b" x="233.786714" y="312.941504" style="fill: #9b96e1"/>
     <use xlink:href="#m5d3971411b" x="229.770833" y="304.710493" style="fill: #9b96e1"/>
     <use xlink:href="#m5d3971411b" x="224.692154" y="314.895184" style="fill: #9b96e1"/>
     <use xlink:href="#m5d3971411b" x="239.035079" y="312.816702" style="fill: #9b96e1"/>
     <use xlink:href="#m5d3971411b" x="229.770833" y="316.162073" style="fill: #9b96e1"/>
    </g>
   </g>
   <g id="PathCollection_5">
    <g clip-path="url(#p3da2fcfad9)">
     <use xlink:href="#m5d3971411b" x="277.5425" y="258.630928" style="fill: #9b96e1"/>
     <use xlink:href="#m5d3971411b" x="282.265514" y="315.85665" style="fill: #9b96e1"/>
     <use xlink:href="#m5d3971411b" x="277.5425" y="71.381731" style="fill: #9b96e1"/>
     <use xlink:href="#m5d3971411b" x="267.58654" y="315.756353" style="fill: #9b96e1"/>
     <use xlink:href="#m5d3971411b" x="277.5425" y="318.04" style="fill: #9b96e1"/>
     <use xlink:href="#m5d3971411b" x="272.292987" y="317.971915" style="fill: #9b96e1"/>
    </g>
   </g>
   <g id="PathCollection_6">
    <g clip-path="url(#p3da2fcfad9)">
     <use xlink:href="#m5d3971411b" x="323.369601" y="313.395625" style="fill: #9b96e1"/>
     <use xlink:href="#m5d3971411b" x="325.314167" y="318.04" style="fill: #9b96e1"/>
     <use xlink:href="#m5d3971411b" x="320.064167" y="318.04" style="fill: #9b96e1"/>
     <use xlink:href="#m5d3971411b" x="330.564167" y="318.04" style="fill: #9b96e1"/>
     <use xlink:href="#m5d3971411b" x="314.814167" y="318.04" style="fill: #9b96e1"/>
     <use xlink:href="#m5d3971411b" x="335.814167" y="318.04" style="fill: #9b96e1"/>
    </g>
   </g>
  </g>
 </g>
 <defs>
  <clipPath id="p3da2fcfad9">
   <rect x="62.57" y="10.8" width="286.63" height="307.24"/>
  </clipPath>
 </defs>
</svg>
